<svg width="51" height="42" viewBox="0 0 51 42" fill="none" xmlns="http://www.w3.org/2000/svg">
<path d="M46.5857 3.59617H34.1158C31.5075 3.59617 24.3982 3.6171 21.4569 3.62612C20.7381 3.62832 20.1851 3.03688 20.0233 2.33654C19.8633 1.64358 19.373 0.993319 18.6619 0.985879C15.2378 0.950055 6.2869 0.858459 4.28123 0.858459C1.78798 0.858459 0.635132 2.39925 0.635132 5.07374V34.1618C0.635132 36.8362 0.635132 36.8362 3.48455 36.8362H47.6506C50.5 36.8362 50.5 36.8363 50.5 33.7797V7.79859C50.5 4.74203 49.4351 3.59617 46.5857 3.59617Z" fill="url(#paint0_linear_22_6)"/>
<path d="M0.618199 12.6663C0.553476 10.4131 2.36242 8.55146 4.61655 8.55146H18.5974C19.1915 8.55146 19.724 8.18506 19.9364 7.63022V7.63022C20.1487 7.07538 20.6813 6.70898 21.2754 6.70898H46.5C48.7091 6.70898 50.5 8.49985 50.5 10.709V37.8585C50.5 40.0676 48.7091 41.8585 46.5 41.8585H4.63513C2.42599 41.8585 0.63513 40.0676 0.63513 37.8585V13.2557L0.618199 12.6663Z" fill="url(#paint1_linear_22_6)"/>
<rect x="17.0193" y="13.53" width="17.0965" height="3.05656" rx="1.52828" fill="#EEEEEE"/>
<defs>
<linearGradient id="paint0_linear_22_6" x1="7.31346" y1="18.2103" x2="43.8217" y2="18.2103" gradientUnits="userSpaceOnUse">
<stop stop-color="#A41212"/>
<stop offset="1" stop-color="#EA2828"/>
</linearGradient>
<linearGradient id="paint1_linear_22_6" x1="9.53957" y1="7.62501" x2="43.8414" y2="39.6022" gradientUnits="userSpaceOnUse">
<stop stop-color="#8F8F8F"/>
<stop offset="1" stop-color="#4A4A4A"/>
</linearGradient>
</defs>
</svg>
